G04 #@! TF.GenerationSoftware,KiCad,Pcbnew,6.0.9*
G04 #@! TF.CreationDate,2023-03-07T12:57:11+01:00*
G04 #@! TF.ProjectId,injection-controller,696e6a65-6374-4696-9f6e-2d636f6e7472,rev?*
G04 #@! TF.SameCoordinates,Original*
G04 #@! TF.FileFunction,Soldermask,Bot*
G04 #@! TF.FilePolarity,Negative*
%FSLAX46Y46*%
G04 Gerber Fmt 4.6, Leading zero omitted, Abs format (unit mm)*
G04 Created by KiCad (PCBNEW 6.0.9) date 2023-03-07 12:57:11*
%MOMM*%
%LPD*%
G01*
G04 APERTURE LIST*
G04 Aperture macros list*
%AMRoundRect*
0 Rectangle with rounded corners*
0 $1 Rounding radius*
0 $2 $3 $4 $5 $6 $7 $8 $9 X,Y pos of 4 corners*
0 Add a 4 corners polygon primitive as box body*
4,1,4,$2,$3,$4,$5,$6,$7,$8,$9,$2,$3,0*
0 Add four circle primitives for the rounded corners*
1,1,$1+$1,$2,$3*
1,1,$1+$1,$4,$5*
1,1,$1+$1,$6,$7*
1,1,$1+$1,$8,$9*
0 Add four rect primitives between the rounded corners*
20,1,$1+$1,$2,$3,$4,$5,0*
20,1,$1+$1,$4,$5,$6,$7,0*
20,1,$1+$1,$6,$7,$8,$9,0*
20,1,$1+$1,$8,$9,$2,$3,0*%
G04 Aperture macros list end*
%ADD10C,2.000000*%
%ADD11C,2.100000*%
%ADD12O,2.100000X5.000000*%
%ADD13R,1.600000X1.600000*%
%ADD14C,1.600000*%
%ADD15R,1.300000X1.300000*%
%ADD16C,1.300000*%
%ADD17RoundRect,0.225000X-0.225000X-0.250000X0.225000X-0.250000X0.225000X0.250000X-0.225000X0.250000X0*%
%ADD18RoundRect,0.200000X-0.275000X0.200000X-0.275000X-0.200000X0.275000X-0.200000X0.275000X0.200000X0*%
G04 APERTURE END LIST*
D10*
G04 #@! TO.C,J1*
X138630000Y-95580000D03*
X136090000Y-94350000D03*
X138630000Y-93080000D03*
X136090000Y-91810000D03*
X138630000Y-90540000D03*
X135990000Y-89270000D03*
X138630000Y-88000000D03*
X136090000Y-86730000D03*
D11*
X143460000Y-94100000D03*
X143460000Y-96640000D03*
X143460000Y-85720000D03*
X143460000Y-88260000D03*
D12*
X132790000Y-99050000D03*
X132790000Y-83310000D03*
G04 #@! TD*
D13*
G04 #@! TO.C,U1*
X120240000Y-118760000D03*
D14*
X122780000Y-118760000D03*
X125320000Y-118760000D03*
X127860000Y-118760000D03*
X130400000Y-118760000D03*
X132940000Y-118760000D03*
X135480000Y-118760000D03*
X138020000Y-118760000D03*
X140560000Y-118760000D03*
X143100000Y-118760000D03*
X145640000Y-118760000D03*
X148180000Y-118760000D03*
X150720000Y-118760000D03*
X153260000Y-118760000D03*
X155800000Y-118760000D03*
X158340000Y-118760000D03*
X160880000Y-118760000D03*
X163420000Y-118760000D03*
X165960000Y-118760000D03*
X168500000Y-118760000D03*
X171040000Y-118760000D03*
X173580000Y-118760000D03*
X176120000Y-118760000D03*
X178660000Y-118760000D03*
X178660000Y-103520000D03*
X176120000Y-103520000D03*
X173580000Y-103520000D03*
X171040000Y-103520000D03*
X168500000Y-103520000D03*
X165960000Y-103520000D03*
X163420000Y-103520000D03*
X160880000Y-103520000D03*
X158340000Y-103520000D03*
X155800000Y-103520000D03*
X153260000Y-103520000D03*
X150720000Y-103520000D03*
X148180000Y-103520000D03*
X145640000Y-103520000D03*
X143100000Y-103520000D03*
X140560000Y-103520000D03*
X138020000Y-103520000D03*
X135480000Y-103520000D03*
X132940000Y-103520000D03*
X130400000Y-103520000D03*
X127860000Y-103520000D03*
X125320000Y-103520000D03*
X122780000Y-103520000D03*
X120240000Y-103520000D03*
X122780000Y-106060000D03*
X165960000Y-116220000D03*
X165960000Y-113680000D03*
X165960000Y-111140000D03*
X165960000Y-108600000D03*
X165960000Y-106060000D03*
D13*
X126539200Y-115709200D03*
D14*
X129079200Y-115709200D03*
X131619200Y-115709200D03*
X134159200Y-115709200D03*
X136699200Y-115709200D03*
D15*
X133210000Y-105958400D03*
D16*
X133210000Y-107958400D03*
X133210000Y-109958400D03*
X135210000Y-109958400D03*
X135210000Y-107958400D03*
X135210000Y-105958400D03*
X120970000Y-109870000D03*
X120970000Y-112410000D03*
G04 #@! TD*
D17*
G04 #@! TO.C,C5*
X141085000Y-90550000D03*
X142635000Y-90550000D03*
G04 #@! TD*
D18*
G04 #@! TO.C,R2*
X145930000Y-94175000D03*
X145930000Y-95825000D03*
G04 #@! TD*
M02*
