M48
; DRILL file {KiCad 6.0.9} date Tue 07 Mar 2023 12:57:26 PM CET
; FORMAT={-:-/ absolute / metric / decimal}
; #@! TF.CreationDate,2023-03-07T12:57:26+01:00
; #@! TF.GenerationSoftware,Kicad,Pcbnew,6.0.9
; #@! TF.FileFunction,MixedPlating,1,2
FMAT,2
METRIC
; #@! TA.AperFunction,Plated,PTH,ViaDrill
T1C0.200
; #@! TA.AperFunction,Plated,PTH,ComponentDrill
T2C0.800
; #@! TA.AperFunction,Plated,PTH,ComponentDrill
T3C1.000
; #@! TA.AperFunction,Plated,PTH,ComponentDrill
T4C1.100
; #@! TA.AperFunction,Plated,PTH,ComponentDrill
T5C1.200
; #@! TA.AperFunction,Plated,PTH,ComponentDrill
T6C1.800
%
G90
G05
T1
X120.4Y-116.5
X120.6Y-106.4
X123.0Y-82.4
X123.1Y-89.9
X123.1Y-98.5
X123.6Y-116.4
X125.0Y-110.9
X126.5Y-110.2
X128.35Y-94.8
X128.9Y-91.2
X129.4Y-100.7
X130.2Y-106.3
X130.2Y-110.3
X130.4Y-81.5
X130.5Y-82.5
X131.4Y-91.1
X132.2Y-88.0
X132.3Y-95.2
X133.0Y-87.1
X134.4Y-92.5
X134.4Y-93.6
X134.4Y-112.7
X134.6Y-97.3
X134.6Y-98.3
X134.947Y-101.133
X135.3Y-82.8
X135.4Y-81.4
X135.669Y-100.219
X136.6Y-96.5
X136.6Y-99.1
X136.9Y-85.0
X138.0Y-85.9
X139.1Y-81.9
X139.3Y-101.8
X139.5Y-106.1
X140.1Y-92.1
X141.0Y-87.7
X141.1Y-112.9
X142.4Y-101.4
X143.2Y-81.9
X143.3Y-92.4
X144.4Y-106.1
X145.0Y-101.6
X145.6Y-111.6
X146.6Y-88.6
X146.7Y-82.1
X146.7Y-90.1
X146.767Y-96.667
X146.9Y-92.6
X147.2Y-94.3
X147.385Y-101.972
X147.8Y-86.8
X148.4Y-95.6
X148.6Y-83.8
X149.0Y-86.9
X149.5Y-83.8
X149.5Y-107.6
X149.6Y-81.4
X149.9Y-115.3
X150.1Y-83.6
X150.3Y-88.3
X150.45Y-81.4
X151.1Y-83.8
X151.9Y-95.7
X152.1Y-83.8
X152.4Y-91.6
X153.1Y-83.8
X154.1Y-83.7
X155.1Y-83.7
X155.9Y-113.6
X156.1Y-106.9
X156.1Y-83.7
X157.1Y-83.7
X157.8Y-115.4
X158.1Y-83.7
X159.1Y-83.7
X160.1Y-83.7
X160.25Y-101.75
X161.1Y-83.7
X162.5Y-116.3
X162.9Y-106.6
X163.2Y-81.7
X163.5Y-86.5
X165.75Y-91.5
X165.75Y-96.3
X165.75Y-100.3
X166.0Y-81.1
X166.0Y-83.3
X167.3Y-85.4
X168.4Y-81.1
X168.4Y-83.3
X169.0Y-115.5
X169.1Y-106.8
X170.7Y-83.3
X172.55Y-101.4
X174.2Y-81.0
X174.2Y-83.3
X174.2Y-85.6
X174.25Y-91.0
X174.25Y-96.3
X177.1Y-115.4
X177.25Y-106.5
X178.5Y-87.5
X178.8Y-82.0
X178.9Y-80.9
X179.25Y-90.0
X179.25Y-96.25
X179.25Y-100.75
T2
X120.97Y-109.87
X120.97Y-112.41
X133.21Y-105.958
X133.21Y-107.958
X133.21Y-109.958
X135.21Y-105.958
X135.21Y-107.958
X135.21Y-109.958
T3
X135.99Y-89.27
X136.09Y-86.73
X136.09Y-91.81
X136.09Y-94.35
X138.63Y-88.0
X138.63Y-90.54
X138.63Y-93.08
X138.63Y-95.58
T4
X120.24Y-103.52
X120.24Y-118.76
X122.78Y-103.52
X122.78Y-106.06
X122.78Y-118.76
X125.32Y-103.52
X125.32Y-118.76
X126.539Y-115.709
X127.86Y-103.52
X127.86Y-118.76
X129.079Y-115.709
X130.4Y-103.52
X130.4Y-118.76
X131.619Y-115.709
X132.94Y-103.52
X132.94Y-118.76
X134.159Y-115.709
X135.48Y-103.52
X135.48Y-118.76
X136.699Y-115.709
X138.02Y-103.52
X138.02Y-118.76
X140.56Y-103.52
X140.56Y-118.76
X143.1Y-103.52
X143.1Y-118.76
X145.64Y-103.52
X145.64Y-118.76
X148.18Y-103.52
X148.18Y-118.76
X150.72Y-103.52
X150.72Y-118.76
X153.26Y-103.52
X153.26Y-118.76
X155.8Y-103.52
X155.8Y-118.76
X158.34Y-103.52
X158.34Y-118.76
X160.88Y-103.52
X160.88Y-118.76
X163.42Y-103.52
X163.42Y-118.76
X165.96Y-103.52
X165.96Y-106.06
X165.96Y-108.6
X165.96Y-111.14
X165.96Y-113.68
X165.96Y-116.22
X165.96Y-118.76
X168.5Y-103.52
X168.5Y-118.76
X171.04Y-103.52
X171.04Y-118.76
X173.58Y-103.52
X173.58Y-118.76
X176.12Y-103.52
X176.12Y-118.76
X178.66Y-103.52
X178.66Y-118.76
T5
X143.46Y-85.72
X143.46Y-88.26
X143.46Y-94.1
X143.46Y-96.64
T6
X132.79Y-83.31
X132.79Y-99.05
T0
M30
